<svg width="40" height="40" viewBox="0 0 40 40" fill="none" xmlns="http://www.w3.org/2000/svg">
<path d="M27.094 12.6153L15.9829 12.6153C15.3693 12.6153 14.8718 13.0745 14.8718 13.641C14.8718 14.2074 15.3693 14.6666 15.9829 14.6666L27.094 14.6666C27.7077 14.6666 28.2052 14.2074 28.2052 13.641C28.2052 13.0745 27.7077 12.6153 27.094 12.6153Z" fill="#8A8A8A"/>
<path d="M12.8149 13.636C12.8137 13.3646 12.7055 13.1047 12.514 12.9134C12.1162 12.516 11.4737 12.516 11.0759 12.9134C10.8843 13.1047 10.7761 13.3646 10.775 13.636C10.7674 13.7024 10.7674 13.7695 10.775 13.8359C10.7865 13.9027 10.8053 13.968 10.8311 14.0306C10.8585 14.0913 10.8909 14.1496 10.928 14.2049C10.9646 14.2624 11.0074 14.3156 11.0555 14.3638C11.1019 14.4102 11.1532 14.4515 11.2085 14.4868C11.2622 14.5261 11.3204 14.5588 11.3819 14.5841C11.4495 14.6194 11.5215 14.6453 11.596 14.661C11.6621 14.6685 11.7289 14.6685 11.7949 14.661C12.0643 14.6612 12.3227 14.5544 12.514 14.3638C12.5621 14.3156 12.6048 14.2624 12.6415 14.2049C12.6786 14.1496 12.711 14.0913 12.7384 14.0306C12.7709 13.9688 12.7966 13.9034 12.8149 13.8359C12.8225 13.7695 12.8225 13.7024 12.8149 13.636Z" fill="#8A8A8A"/>
<path d="M12.8147 19.7898C12.8223 19.7234 12.8223 19.6563 12.8147 19.5899C12.797 19.5238 12.7712 19.4601 12.738 19.4003C12.7116 19.3374 12.6791 19.2773 12.6408 19.2209C12.6054 19.1641 12.5624 19.1124 12.513 19.0672C12.1141 18.6698 11.4699 18.6698 11.071 19.0672C10.8789 19.2585 10.7704 19.5184 10.7693 19.7898C10.7713 19.9248 10.7973 20.0584 10.846 20.1844C10.8716 20.245 10.9024 20.3033 10.938 20.3586C10.9769 20.4143 11.0215 20.4658 11.071 20.5124C11.1162 20.5617 11.1678 20.6049 11.2244 20.6405C11.2782 20.6798 11.3366 20.7125 11.3982 20.7378C11.4606 20.7641 11.5258 20.7831 11.5926 20.7942C11.658 20.8089 11.7249 20.8158 11.792 20.8147C11.8582 20.8224 11.9252 20.8224 11.9914 20.8147C12.0565 20.8035 12.12 20.7846 12.1806 20.7583C12.2439 20.7332 12.304 20.7005 12.3596 20.661C12.4162 20.6254 12.4678 20.5822 12.513 20.5329C12.5623 20.4876 12.6053 20.4359 12.6408 20.3791C12.6801 20.3252 12.7128 20.2667 12.738 20.2049C12.7729 20.1368 12.7987 20.0645 12.8147 19.9896C12.8225 19.9232 12.8225 19.8562 12.8147 19.7898Z" fill="#8A8A8A"/>
<path d="M12.8147 26.9693C12.8222 26.9029 12.8222 26.8358 12.8147 26.7694C12.797 26.7016 12.7712 26.6362 12.738 26.5747C12.7105 26.514 12.678 26.4557 12.6408 26.4004C12.6053 26.3437 12.5623 26.292 12.513 26.2467C12.1141 25.8493 11.4699 25.8493 11.071 26.2467C11.0218 26.292 10.9787 26.3437 10.9432 26.4004C10.906 26.4557 10.8735 26.514 10.846 26.5747C10.8195 26.637 10.8006 26.7025 10.7898 26.7694C10.7754 26.835 10.7686 26.9021 10.7693 26.9693C10.7705 27.2406 10.879 27.5005 11.071 27.6918C11.1162 27.7412 11.1678 27.7843 11.2244 27.8199C11.2783 27.8593 11.3366 27.892 11.3983 27.9173C11.4606 27.9436 11.5259 27.9625 11.5926 27.9737C11.658 27.9884 11.725 27.9953 11.792 27.9942C11.8583 28.0018 11.9252 28.0018 11.9914 27.9942C12.0565 27.983 12.12 27.9641 12.1806 27.9378C12.2439 27.9126 12.304 27.8799 12.3596 27.8404C12.4162 27.8048 12.4678 27.7617 12.513 27.7123C12.5623 27.667 12.6053 27.6153 12.6408 27.5586C12.6802 27.5047 12.7128 27.4462 12.738 27.3843C12.7729 27.3163 12.7987 27.2439 12.8147 27.1691C12.8225 27.1027 12.8225 27.0356 12.8147 26.9693Z" fill="#8A8A8A"/>
<path d="M28.1263 18.7692L15.9764 18.7692C15.3663 18.7692 14.8718 19.2284 14.8718 19.7948C14.8718 20.3612 15.3663 20.8204 15.9764 20.8204L28.1263 20.8204C28.7363 20.8204 29.2308 20.3612 29.2308 19.7948C29.2308 19.2284 28.7363 18.7692 28.1263 18.7692Z" fill="#8A8A8A"/>
<path d="M23.9216 25.9486L16.0785 25.9486C15.4121 25.9486 14.8718 26.4078 14.8718 26.9743C14.8718 27.5407 15.4121 27.9999 16.0785 27.9999L23.9216 27.9999C24.588 27.9999 25.1282 27.5407 25.1282 26.9743C25.1282 26.4078 24.588 25.9486 23.9216 25.9486Z" fill="#8A8A8A"/>
</svg>
